<svg xmlns="http://www.w3.org/2000/svg" viewBox="0 0 800 580" font-family="system-ui, -apple-system, sans-serif">
  <defs>
    <linearGradient id="headerGrad2" x1="0%" y1="0%" x2="100%" y2="0%">
      <stop offset="0%" style="stop-color:#1a1a2e"/>
      <stop offset="100%" style="stop-color:#16213e"/>
    </linearGradient>
    <filter id="shadow2" x="-2%" y="-2%" width="104%" height="104%">
      <feDropShadow dx="0" dy="2" stdDeviation="3" flood-opacity="0.1"/>
    </filter>
    <marker id="arrow2" markerWidth="8" markerHeight="6" refX="8" refY="3" orient="auto">
      <path d="M0,0 L8,3 L0,6" fill="#424242"/>
    </marker>
    <marker id="arrowRed" markerWidth="8" markerHeight="6" refX="8" refY="3" orient="auto">
      <path d="M0,0 L8,3 L0,6" fill="#c62828"/>
    </marker>
    <marker id="arrowGreen" markerWidth="8" markerHeight="6" refX="8" refY="3" orient="auto">
      <path d="M0,0 L8,3 L0,6" fill="#2e7d32"/>
    </marker>
  </defs>

  <!-- Background -->
  <rect width="800" height="580" fill="#fafbfc" rx="12"/>

  <!-- Header -->
  <rect x="20" y="20" width="760" height="50" fill="url(#headerGrad2)" rx="8"/>
  <text x="40" y="51" fill="white" font-size="18" font-weight="600">Mid-Loop: Real-Time Steering</text>
  <text x="680" y="51" fill="#8892b0" font-size="12">LOOP PILOT</text>

  <!-- Initial Guidance -->
  <rect x="40" y="95" width="180" height="50" fill="#e8f5e9" stroke="#388e3c" stroke-width="1.5" rx="8" filter="url(#shadow2)"/>
  <text x="130" y="118" text-anchor="middle" font-size="12" font-weight="600" fill="#2e7d32">Initial Guidance</text>
  <text x="130" y="134" text-anchor="middle" font-size="10" fill="#388e3c">(from pre-loop plan)</text>

  <!-- Arrow down -->
  <path d="M 130 145 L 130 170" stroke="#424242" stroke-width="1.5" fill="none" marker-end="url(#arrow2)"/>

  <!-- Agent Loop Container -->
  <rect x="40" y="175" width="720" height="310" fill="#f3e5f5" stroke="#7b1fa2" stroke-width="2" rx="10" stroke-dasharray="6,3"/>
  <text x="60" y="198" font-size="13" font-weight="600" fill="#4a148c">Agent Loop</text>

  <!-- Iteration boxes -->
  <rect x="70" y="210" width="140" height="40" fill="white" stroke="#9e9e9e" stroke-width="1" rx="6"/>
  <text x="140" y="235" text-anchor="middle" font-size="11" fill="#424242">Iteration 1 → tool</text>

  <rect x="70" y="260" width="140" height="40" fill="white" stroke="#9e9e9e" stroke-width="1" rx="6"/>
  <text x="140" y="285" text-anchor="middle" font-size="11" fill="#424242">Iteration 2 → tool</text>

  <rect x="70" y="310" width="140" height="40" fill="white" stroke="#9e9e9e" stroke-width="1" rx="6"/>
  <text x="140" y="335" text-anchor="middle" font-size="11" fill="#424242">Iteration 3 → tool</text>

  <!-- Arrow to checkpoint -->
  <path d="M 210 330 L 280 330" stroke="#7b1fa2" stroke-width="2" fill="none" marker-end="url(#arrow2)"/>

  <!-- Checkpoint -->
  <rect x="290" y="220" width="200" height="180" fill="white" stroke="#7b1fa2" stroke-width="2" rx="10" filter="url(#shadow2)"/>
  <rect x="290" y="220" width="200" height="30" fill="#7b1fa2" rx="10"/>
  <rect x="290" y="240" width="200" height="10" fill="#7b1fa2"/>
  <text x="390" y="241" text-anchor="middle" font-size="11" font-weight="600" fill="white">check_progress</text>

  <!-- Checkpoint decisions -->
  <text x="310" y="275" font-size="11" fill="#424242">Compare current trajectory</text>
  <text x="310" y="292" font-size="11" fill="#424242">against successful episodes</text>

  <line x1="310" y1="305" x2="470" y2="305" stroke="#e0e0e0" stroke-width="1"/>

  <circle cx="320" cy="325" r="6" fill="#4caf50"/>
  <text x="335" y="329" font-size="10" fill="#2e7d32">On track → Continue silently</text>

  <circle cx="320" cy="350" r="6" fill="#ff9800"/>
  <text x="335" y="354" font-size="10" fill="#e65100">Drifting → Inject nudge</text>

  <circle cx="320" cy="375" r="6" fill="#f44336"/>
  <text x="335" y="379" font-size="10" fill="#c62828">Diminishing returns → Suggest wrap</text>

  <!-- Arrows from checkpoint -->
  <!-- Continue -->
  <path d="M 490 280 L 560 280 L 560 375 L 210 375 L 210 360 L 140 360 L 140 375" stroke="#4caf50" stroke-width="1.5" fill="none" stroke-dasharray="4,3" marker-end="url(#arrowGreen)"/>

  <!-- More iterations after checkpoint -->
  <rect x="70" y="380" width="140" height="40" fill="white" stroke="#9e9e9e" stroke-width="1" rx="6"/>
  <text x="140" y="405" text-anchor="middle" font-size="11" fill="#424242">Iteration 4 → tool</text>

  <rect x="70" y="430" width="140" height="40" fill="white" stroke="#e0e0e0" stroke-width="1" rx="6" stroke-dasharray="3,2"/>
  <text x="140" y="455" text-anchor="middle" font-size="11" fill="#9e9e9e">... continues</text>

  <!-- Nudge callout -->
  <rect x="540" y="320" width="200" height="70" fill="#fff3e0" stroke="#f57c00" stroke-width="1.5" rx="8" filter="url(#shadow2)"/>
  <text x="640" y="342" text-anchor="middle" font-size="11" font-weight="600" fill="#e65100">Real-Time Nudge</text>
  <text x="640" y="360" text-anchor="middle" font-size="10" fill="#f57c00">"You've repeated bash 3x.</text>
  <text x="640" y="375" text-anchor="middle" font-size="10" fill="#f57c00">Consider writing output now."</text>

  <path d="M 490 350 L 540 350" stroke="#f57c00" stroke-width="1.5" fill="none" marker-end="url(#arrow2)"/>

  <!-- Record at bottom -->
  <rect x="540" y="440" width="200" height="40" fill="#fce4ec" stroke="#c62828" stroke-width="1.5" rx="8" filter="url(#shadow2)"/>
  <text x="640" y="465" text-anchor="middle" font-size="11" font-weight="600" fill="#b71c1c">record_episode (with steering data)</text>

  <!-- Legend -->
  <rect x="40" y="505" width="720" height="55" fill="#f5f5f5" stroke="#e0e0e0" stroke-width="1" rx="6"/>
  <text x="60" y="528" font-size="11" font-weight="600" fill="#424242">Same philosophy:</text>
  <text x="170" y="528" font-size="11" fill="#616161">Inform, then trust. Never override. Never halt. Just surface the signal the model can't see.</text>
  <text x="60" y="548" font-size="11" font-weight="600" fill="#424242">When silent:</text>
  <text x="155" y="548" font-size="11" fill="#616161">If the trajectory matches successful past patterns, Loop Pilot says nothing. Zero overhead.</text>
</svg>
